# xmcd CD database file generated by Grip 2.9
# 
# Track frame offsets:
#       150
#       19258
#       41750
#       76383
#       102956
#       128679
#       147269
#       181553
#       200412
#       228307
# 
# Disc length: 3405 seconds
# 
# Revision: 3
# Processed by: cddbd v1.4PL0 Copyright (c) Steve Scherf et al.
# Submitted via: Grip 2.9
# 
DISCID=7b0d4b0a
DTITLE=Nashville Connection - Platin Edition - The Country Hits - CD3
DYEAR=1900
DGENRE=
TTITLE0=Gone Country Medley
TTITLE1=Burn The Jukebox Medley
TTITLE2=Country Ladies Medley
TTITLE3=Country Dance Club Medley
TTITLE4=Boot Scootin' Medley
TTITLE5=Friends In Low Places Medley
TTITLE6=Slow Dancin' Medley
TTITLE7=Country Groups Medley
TTITLE8=Rock The Country Medley
TTITLE9=Two-Steppin' Medley
EXTD=
EXTT0=
EXTT1=
EXTT2=
EXTT3=
EXTT4=
EXTT5=
EXTT6=
EXTT7=
EXTT8=
EXTT9=
PLAYORDER=
